Coordinates
version=1
nRows=26
nColumns=24
inDegrees=yes

Units are S.I. units (second, meters, Newtons, ...)
Angles are in degrees.

endheader
time	pelvis_tilt	pelvis_list	pelvis_rotation	pelvis_tx	pelvis_ty	pelvis_tz	hip_flexion_r	hip_adduction_r	hip_rotation_r	knee_angle_r	ankle_angle_r	subtalar_angle_r	mtp_angle_r	hip_flexion_l	hip_adduction_l	hip_rotation_l	knee_angle_l	ankle_angle_l	subtalar_angle_l	mtp_angle_l	lumbar_extension	lumbar_bending	lumbar_rotation
      1.05433333	     -5.34620687	     -4.38389784	     -5.15142703	     -0.01149278	      0.97150998	      0.30847407	     -9.19893410	      7.95258226	     -1.33872230	     -9.06894148	     12.45008383	     -2.24226502	      1.85193420	     28.72061379	     -3.94907641	     -7.66089599	      1.43969778	      0.23398227	      2.06556470	     -0.44227406	      0.31961775	      8.80791729	      8.04437524
      1.05850000	     -5.38557616	     -4.32266821	     -5.19765195	     -0.00542880	      0.97099044	      0.30823667	     -9.24893250	      7.81961915	     -1.33921859	     -9.58672598	     12.36509575	     -2.26539939	      1.86522296	     28.66643477	     -3.83583475	     -7.69446189	      1.36335652	      0.12140112	      1.91794183	     -0.41881786	      0.40057678	      8.75850477	      8.06395405
      1.06266667	     -5.48738591	     -4.24124300	     -5.24536919	      0.00063823	      0.97043428	      0.30799929	     -9.19074001	      7.67001246	     -1.34783263	    -10.18303541	     12.37347839	     -2.19298819	      1.91496641	     28.64988675	     -3.70806921	     -7.56954628	      1.28928448	     -0.14967983	      1.52488576	     -0.35529214	      0.56474337	      8.63723718	      8.16275959
      1.06683333	     -5.55203601	     -4.18070071	     -5.29103709	      0.00672349	      0.96997868	      0.30773991	     -9.15295979	      7.53538833	     -1.37815489	    -10.81427778	     12.29222323	     -2.12277820	      2.00285149	     28.58707649	     -3.59990002	     -7.40593913	      1.17459349	     -0.42668057	      1.03373787	     -0.24844970	      0.68449703	      8.58136535	      8.24030469
      1.07100000	     -5.64128709	     -4.09215148	     -5.32987998	      0.01284702	      0.96955196	      0.30749195	     -9.07488854	      7.37828543	     -1.37980815	    -11.46539877	     12.18784572	     -2.13627471	      2.11177823	     28.56313569	     -3.46887731	     -7.27154756	      0.98740445	     -0.75627864	      0.55867590	     -0.12817488	      0.83968929	      8.47749654	      8.28961789
      1.07516667	     -5.73378476	     -3.99818991	     -5.36485611	      0.01899777	      0.96917573	      0.30723407	     -8.97311114	      7.21658906	     -1.37510773	    -12.15113693	     12.04607376	     -2.18207873	      2.24743935	     28.53652395	     -3.33373779	     -7.10068960	      0.77224598	     -1.13940034	      0.01875217	      0.00959065	      1.00365863	      8.36731313	      8.33617520
      1.07933333	     -5.82371707	     -3.89617896	     -5.39136443	      0.02517562	      0.96885096	      0.30696485	     -8.85094531	      7.04696480	     -1.37519298	    -12.87477103	     11.86930658	     -2.24605346	      2.40730114	     28.50541714	     -3.18951104	     -6.90585787	      0.52644108	     -1.57692492	     -0.56433881	      0.15762437	      1.17200775	      8.24550477	      8.37482863
      1.08350000	     -5.92280444	     -3.78556774	     -5.41370506	      0.03137815	      0.96856903	      0.30668739	     -8.69352117	      6.86929587	     -1.37685531	    -13.64038534	     11.65614054	     -2.32806699	      2.58582269	     28.48432890	     -3.03823842	     -6.70159463	      0.25117839	     -2.06313787	     -1.17361348	      0.30883555	      1.35867556	      8.11293184	      8.40735937
      1.08766667	     -6.03345687	     -3.67113927	     -5.43305609	      0.03759328	      0.96832576	      0.30639877	     -8.49472683	      6.68865720	     -1.37812337	    -14.45305191	     11.39974843	     -2.42634035	      2.79729859	     28.47503915	     -2.88423230	     -6.47449874	     -0.04715835	     -2.58461128	     -1.81631313	      0.47209789	      1.55997774	      7.97828534	      8.43327989
      1.09183333	     -6.13499318	     -3.54029676	     -5.44161976	      0.04383912	      0.96813726	      0.30608441	     -8.27774632	      6.48793469	     -1.39681628	    -15.31117146	     11.10166037	     -2.53197104	      3.04296616	     28.45524218	     -2.70988943	     -6.23646520	     -0.36169694	     -3.14869628	     -2.48263179	      0.64438826	      1.75738654	      7.82136327	      8.44899909
      1.09600000	     -6.24684012	     -3.40694051	     -5.44358978	      0.05009409	      0.96798595	      0.30575650	     -8.01863505	      6.28540585	     -1.42149029	    -16.21790022	     10.75666894	     -2.64498047	      3.32397791	     28.45137478	     -2.53301975	     -5.99252250	     -0.70071492	     -3.73319277	     -3.14352489	      0.82207947	      1.97199270	      7.66300417	      8.45593107
      1.10016667	     -6.34548094	     -3.25888753	     -5.43652483	      0.05637041	      0.96789755	      0.30539788	     -7.74184178	      6.06245805	     -1.46548934	    -17.17296149	     10.36368255	     -2.75592333	      3.65348951	     28.43308261	     -2.33688010	     -5.74577478	     -1.05144238	     -4.33940764	     -3.81020883	      1.00900027	      2.17500805	      7.48550049	      8.45542469
      1.10433333	     -6.41413297	     -3.07652412	     -5.39399935	      0.06271691	      0.96787959	      0.30496181	     -7.46819641	      5.78369910	     -1.63383497	    -18.15139333	      9.76586210	     -2.80530613	      8.93084044	     28.39462086	     -2.09093074	     -5.52855598	     -1.43005433	     -4.96253271	     -4.42516752	      3.75371288	      2.35265753	      7.26397474	      8.40975646
      1.10850000	     -6.53370623	     -2.91630947	     -5.39636044	      0.06898673	      0.96786930	      0.30461849	     -7.10021832	      5.55329486	     -1.61699867	    -19.21534058	      9.32483395	     -3.05150216	      8.99416663	     28.41040051	     -1.89599729	     -5.33539069	     -1.82374047	     -5.57033778	     -5.00991353	      3.73479384	      2.58419170	      7.07522886	      8.42114479
      1.11266667	     -6.64067241	     -2.73901547	     -5.36762209	      0.07528125	      0.96790570	      0.30419915	     -6.71147874	      5.29253686	     -1.68705876	    -20.32199519	      8.76906346	     -3.17003630	      9.11483560	     28.41910781	     -1.66774541	     -5.10909331	     -2.23409165	     -6.15543756	     -5.60603673	      3.72373734	      2.80606842	      6.86659714	      8.40207360
      1.11683333	     -6.72254729	     -2.54422937	     -5.32683482	      0.08159102	      0.96800897	      0.30375028	     -6.31428052	      5.00461797	     -1.78497084	    -21.47919848	      8.15823246	     -3.26037336	      9.28390608	     28.40093729	     -1.41653061	     -4.89558137	     -2.64861145	     -6.71812937	     -6.15433591	      3.71734953	      3.00490987	      6.63325472	      8.36753601
      1.12100000	     -6.81216088	     -2.33511323	     -5.28066882	      0.08789420	      0.96814464	      0.30327147	     -5.86967981	      4.69577468	     -1.89586064	    -22.68960239	      7.48524297	     -3.33652962	      9.49899004	     28.39941164	     -1.15047103	     -4.70161393	     -3.08437428	     -7.24369519	     -6.66265465	      3.71253396	      3.21258775	      6.38766399	      8.32902305
      1.12516667	     -6.82847366	     -2.09993542	     -5.17578195	      0.09425444	      0.96839279	      0.30267610	     -5.48641915	      4.33221501	     -2.13893235	    -23.90068174	      6.62401515	     -3.32997694	     13.69358469	     28.32124130	     -0.82312364	     -4.45730228	     -3.52535822	     -7.69867084	     -7.20086262	      3.74888337	      3.34216252	      6.08734899	      8.27104863
      1.12933333	     -6.93991649	     -1.87323110	     -5.15383624	      0.10049787	      0.96857431	      0.30222676	     -4.93430491	      4.00340898	     -2.18147166	    -25.23485898	      5.89013182	     -3.52448709	     13.76664385	     28.36040284	     -0.56119531	     -4.37243589	     -4.00476657	     -8.14078037	     -7.55969455	      3.73816540	      3.57531670	      5.83212177	      8.22726882
      1.13350000	     -6.99527617	     -1.61907023	     -5.08028854	      0.10676438	      0.96883578	      0.30165587	     -4.41644850	      3.62135157	     -2.33205687	    -26.59343598	      5.06296405	     -3.56132774	     13.97898510	     28.33433056	     -0.23696506	     -4.19885870	     -4.47539893	     -8.49795139	     -8.01872841	      3.71848126	      3.74493765	      5.52399767	      8.17483849
      1.13766667	     -7.04902930	     -1.36316116	     -5.00308468	      0.11300150	      0.96912914	      0.30107657	     -3.86609117	      3.23180463	     -2.48327598	    -27.99209817	      4.14221087	     -3.58961491	     14.30821437	     28.31071855	      0.08773361	     -4.05632318	     -4.95433818	     -8.81517007	     -8.39961933	      3.68703561	      3.91000956	      5.21809397	      8.11377675
      1.14183333	     -7.08472259	     -1.10324174	     -4.91044122	      0.11921715	      0.96947146	      0.30046926	     -3.31482863	      2.83347426	     -2.63106824	    -29.40155455	      3.10769344	     -3.61668242	     14.58868612	     28.28347757	      0.42093619	     -3.95944219	     -5.46601103	     -9.08555265	     -8.69121892	      3.65495634	      4.05097027	      4.90767459	      8.05048893
      1.14600000	     -7.04581173	     -0.80256428	     -4.79003819	      0.12547222	      0.96993615	      0.29977412	     -2.82086467	      2.36034785	     -2.85607317	    -30.82384285	      1.94760395	     -3.64932394	     18.47001079	     28.13346911	      0.82205887	     -3.78928595	     -5.89547755	     -9.28671108	     -9.01711750	      3.19927636	      4.11263163	      4.54171271	      7.98395113
      1.15016667	     -7.11075427	     -0.52679087	     -4.71772366	      0.13156613	      0.97027019	      0.29918855	     -2.15389056	      1.94247976	     -2.94042382	    -32.34481341	      0.86302606	     -3.76819726	     18.51568184	     28.14149680	      1.15427607	     -3.77540389	     -6.41744239	     -9.41014897	     -9.16185181	      3.19169813	      4.28019545	      4.21999059	      7.90404349
      1.15433333	     -7.12979547	     -0.22974767	     -4.61740444	      0.13767366	      0.97068190	      0.29852610	     -1.51984832	      1.48310465	     -3.07285947	    -33.87133150	     -0.32214138	     -3.84149396	     18.57483077	     28.06946755	      1.53127522	     -3.70233453	     -6.87840923	     -9.48297950	     -9.33119330	      3.17888127	      4.40199837	      3.87533785	      7.82834528
      1.15850000	     -7.14233406	      0.07065503	     -4.50760594	      0.14371162	      0.97110555	      0.29784274	     -0.86356678	      1.01566115	     -3.19898450	    -35.42271544	     -1.55629702	     -3.89540189	     18.64491714	     27.98839968	      1.91731055	     -3.62920861	     -7.33220441	     -9.50876341	     -9.50196660	      3.16126601	      4.50109236	      3.51479410	      7.74752630
